# xmcd
# Track frame offsets:
# 150
# 13399
# 23282
# 33501
# 42425
# 52126
# 62643
# 70726
# 79173
# 88673
# 98207
# 108437
# 118402
# 128686
# 138045
# 146994
# 155677
# 165861
# 178978
# 187739
#
# Disc length: 2634 seconds
# Revision: 0
# Processed by: cddbd v1.5.2PL0 Copyright (c) Steve Scherf et al.
# Submitted via: VisiTrax 2.11.3.279 - For more info visit www.synapsa.com
#
DISCID=140a4814
DTITLE=Various (1950's-1960's) Pop and Rock 'n Roll Artists - British Rock 'n
DTITLE=' Roll: The Absolutely Essential Collection: CD2 of 3: *ReMastered Tra
DTITLE=cks
DYEAR=2015
DGENRE=Rock n Roll
TTITLE0=Shadows The - Apache*
TTITLE1=Vince Taylor and The Playboys - Right Behind You Baby*
TTITLE2=Lord Rockingham's XI - Hoots Mon!*
TTITLE3=Tommy Steele - Come On Let's Go*
TTITLE4=Cliff Richard and The Shadows as The Drifters - Livin' Lovin' Doll*
TTITLE5=Marty Wilde and The Wildcats - Endless Sleep*
TTITLE6=Billy Fury - Don't Knock Upon My Door*
TTITLE7=Johnny Kidd and The Pirates - Please Don't Touch*
TTITLE8=Emile Ford and The Checkmates - What Do You Want To Make Those Eyes At M
TTITLE8=e For?*
TTITLE9=Adam Faith - Ah, Poor Little Baby*
TTITLE10=Bert Weedon - Guitar Boogie Shuffle*
TTITLE11=Billy Fury - Maybe Tomorrow*
TTITLE12=Roy Young - Big Fat Mama*
TTITLE13=Hunters The - Teen Scene*
TTITLE14=Terry White and The Terriers - Blackout*
TTITLE15=Dickie Pride - Frantic*
TTITLE16=Sleepwalkers The - The Golden Mile*
TTITLE17=Wee Willie Harris - I Go Ape*
TTITLE18=Bert Weedon - Big Beat Boogie*
TTITLE19=Sharkey Todd And The Monsters - Horror Show*
EXTD=Compilation and ReMastering: Big3: 2015
EXTT0=
EXTT1=
EXTT2=
EXTT3=
EXTT4=
EXTT5=
EXTT6=
EXTT7=
EXTT8=
EXTT9=
EXTT10=
EXTT11=
EXTT12=
EXTT13=
EXTT14=
EXTT15=
EXTT16=
EXTT17=
EXTT18=
EXTT19=
PLAYORDER=
